<svg id="Layer_1" data-name="Layer 1" xmlns="http://www.w3.org/2000/svg" viewBox="0 0 100 100"><defs><style>.cls-1{fill:#fff;}</style></defs><path class="cls-1" d="M50,100a50,50,0,1,1,50-50A50.06,50.06,0,0,1,50,100ZM50,3.79A46.21,46.21,0,1,0,96.21,50,46.26,46.26,0,0,0,50,3.79Z"/><path class="cls-1" d="M74,23.06H26a3,3,0,0,0-3,3h0V74a3,3,0,0,0,3,3H51.83V56.08h-7V47.94h7V42c0-7,4.26-10.75,10.46-10.75a59.75,59.75,0,0,1,6.28.31v7.28H64.26c-3.39,0-4,1.61-4,4v5.19h8.06l-1.05,8.14h-7V76.94H74a3,3,0,0,0,3-3h0V26a3,3,0,0,0-3-3Z"/></svg>